<svg xmlns="http://www.w3.org/2000/svg" width="20" height="20" fill="none">
  <path fill="#576F35" d="M18.176.196H15.67c-.773 0-1.4.614-1.4 1.372v2.456c0 .758.627 1.372 1.4 1.372h2.506c.774 0 1.4-.614 1.4-1.372V1.568c0-.758-.626-1.372-1.4-1.372ZM4.206 14.4H1.508C.675 14.4 0 15.014 0 15.772v2.456c0 .758.675 1.372 1.508 1.372h2.698c.833 0 1.508-.614 1.508-1.372v-2.456c0-.758-.675-1.372-1.508-1.372ZM3.906 7.239H1.4c-.773 0-1.4.614-1.4 1.372v2.455c0 .758.627 1.373 1.4 1.373h2.506c.773 0 1.4-.615 1.4-1.373V8.611c0-.758-.627-1.372-1.4-1.372ZM11.104 14.361H8.598c-.773 0-1.4.615-1.4 1.372v2.456c0 .758.627 1.372 1.4 1.372h2.506c.773 0 1.4-.614 1.4-1.372v-2.456c0-.757-.627-1.372-1.4-1.372ZM3.906.054H1.4C.627.054 0 .668 0 1.426v2.456c0 .758.627 1.372 1.4 1.372h2.506c.773 0 1.4-.614 1.4-1.372V1.426c0-.758-.627-1.372-1.4-1.372ZM11.297 7.31H8.792c-.774 0-1.4.615-1.4 1.373v2.456c0 .758.626 1.372 1.4 1.372h2.505c.774 0 1.4-.614 1.4-1.372V8.683c0-.758-.626-1.372-1.4-1.372ZM18.333 14.361h-2.506c-.773 0-1.4.615-1.4 1.372v2.456c0 .758.627 1.372 1.4 1.372h2.506c.774 0 1.4-.614 1.4-1.372v-2.456c0-.757-.626-1.372-1.4-1.372ZM10.994.14H8.488c-.773 0-1.4.614-1.4 1.372v2.456c0 .757.627 1.372 1.4 1.372h2.506c.773 0 1.4-.615 1.4-1.373V1.512c0-.758-.627-1.372-1.4-1.372ZM18.152 7.454h-2.506c-.773 0-1.4.614-1.4 1.372v2.455c0 .758.627 1.373 1.4 1.373h2.506c.774 0 1.4-.615 1.4-1.373V8.826c0-.758-.626-1.372-1.4-1.372Z"/>
</svg>
